<?xml version="1.0" encoding="utf-8"?>
<!-- Generator: Adobe Illustrator 18.1.1, SVG Export Plug-In . SVG Version: 6.00 Build 0)  -->
<svg version="1.1" id="Layer_1" xmlns="http://www.w3.org/2000/svg" xmlns:xlink="http://www.w3.org/1999/xlink" x="0px" y="0px"
	 viewBox="-489.016 189 220.032 184.01" style="enable-background:new -489.016 189 220.032 184.01;" xml:space="preserve">
<style type="text/css">
	.st0{fill:#00C96D;}
	.st1{fill-rule:evenodd;clip-rule:evenodd;fill:#00C96D;}
	.st2{fill-rule:evenodd;clip-rule:evenodd;fill:#FFFFFF;}
</style>
<g>
	<path class="st0" d="M-376.33,189c41.835,0,79.523,18.003,90.011,24.441v30.391c-7.262-4.429-11.585-7.998-38.7-7.659
		c-25.889,0.328-57.057,16.993-57.057,42.762c0,25.759,19.642,48.403,50.398,48.403c15.496,0,30.178-0.896,47.019-11.953v32.999
		c0,0-39.758,24.626-92.081,24.626c-60.768,0-112.275-33.409-112.275-96.352c0-31.32,17.17-58.223,41.677-72.181
		C-427.275,193.044-401.7,189-376.33,189z"/>
	<polygon class="st1" points="-323.692,262.65 -268.984,262.65 -268.984,278.251 -282.116,278.251 -282.116,301.396 
		-309.832,301.396 -309.832,278.003 -323.692,278.003 	"/>
	<path class="st2" d="M-428.228,227.966c28.027,0,35.132,26.278,35.132,38.036c0,11.759-8.671,31.385-34.636,31.385
		c-1.368,0-4.741-0.418-7.47-0.666v-19.147c0,0,5.769,0.792,8.045,0.792c2.277,0,16.351,1.847,16.351-13.646
		c0-15.485-13.442-16.775-15.717-16.775c-4.263,0-15.538,2.453-15.538,16.134c0,14.963,0,79.93,0,79.93l-17.707-21.578
		c0-7.265,0-49.279,0-62.519C-459.767,246.343-449.354,227.966-428.228,227.966"/>
</g>
</svg>
