<?xml version="1.0" encoding="UTF-8"?><!DOCTYPE svg PUBLIC "-//W3C//DTD SVG 1.1//EN" "http://www.w3.org/Graphics/SVG/1.1/DTD/svg11.dtd"><svg xmlns="http://www.w3.org/2000/svg" style="display: none;"><symbol id="bug" viewBox="0 0 16 16"><title>bug</title><path d="M11 10h3V9h-3V8l3.17-1.03-.34-.94L11 7V6c0-.55-.45-1-1-1V4c0-.48-.36-.88-.83-.97L10.2 2H12V1H9.8l-2 2h-.59L5.2 1H3v1h1.8l1.03 1.03C5.36 3.12 5 3.51 5 4v1c-.55 0-1 .45-1 1v1l-2.83-.97-.34.94L4 8v1H1v1h3v1L.83 12.03l.34.94L4 12v1c0 .55.45 1 1 1h1l1-1V6h1v7l1 1h1c.55 0 1-.45 1-1v-1l2.83.97.34-.94L11 11v-1zM9 5H6V4h3v1z" fill-rule="evenodd"/></symbol><symbol id="flame" viewBox="0 0 12 16"><title>flame</title><path d="M5.05.31c.81 2.17.41 3.38-.52 4.31C3.55 5.67 1.98 6.45.9 7.98c-1.45 2.05-1.7 6.53 3.53 7.7-2.2-1.16-2.67-4.52-.3-6.61-.61 2.03.53 3.33 1.94 2.86 1.39-.47 2.3.53 2.27 1.67-.02.78-.31 1.44-1.13 1.81 3.42-.59 4.78-3.42 4.78-5.56 0-2.84-2.53-3.22-1.25-5.61-1.52.13-2.03 1.13-1.89 2.75.09 1.08-1.02 1.8-1.86 1.33-.67-.41-.66-1.19-.06-1.78C8.18 5.31 8.68 2.45 5.05.32L5.03.3l.02.01z" fill-rule="evenodd"/></symbol><symbol id="gear" viewBox="0 0 14 16"><title>gear</title><path d="M14 8.77v-1.6l-1.94-.64-.45-1.09.88-1.84-1.13-1.13-1.81.91-1.09-.45-.69-1.92h-1.6l-.63 1.94-1.11.45-1.84-.88-1.13 1.13.91 1.81-.45 1.09L0 7.23v1.59l1.94.64.45 1.09-.88 1.84 1.13 1.13 1.81-.91 1.09.45.69 1.92h1.59l.63-1.94 1.11-.45 1.84.88 1.13-1.13-.92-1.81.47-1.09L14 8.75v.02zM7 11c-1.66 0-3-1.34-3-3s1.34-3 3-3 3 1.34 3 3-1.34 3-3 3z" fill-rule="evenodd"/></symbol><symbol id="globe" viewBox="0 0 14 16"><title>globe</title><path d="M7 1C3.14 1 0 4.14 0 8s3.14 7 7 7c.48 0 .94-.05 1.38-.14-.17-.08-.2-.73-.02-1.09.19-.41.81-1.45.2-1.8-.61-.35-.44-.5-.81-.91-.37-.41-.22-.47-.25-.58-.08-.34.36-.89.39-.94.02-.06.02-.27 0-.33 0-.08-.27-.22-.34-.23-.06 0-.11.11-.2.13-.09.02-.5-.25-.59-.33-.09-.08-.14-.23-.27-.34-.13-.13-.14-.03-.33-.11s-.8-.31-1.28-.48c-.48-.19-.52-.47-.52-.66-.02-.2-.3-.47-.42-.67-.14-.2-.16-.47-.2-.41-.04.06.25.78.2.81-.05.02-.16-.2-.3-.38-.14-.19.14-.09-.3-.95s.14-1.3.17-1.75c.03-.45.38.17.19-.13-.19-.3 0-.89-.14-1.11-.13-.22-.88.25-.88.25.02-.22.69-.58 1.16-.92.47-.34.78-.06 1.16.05.39.13.41.09.28-.05-.13-.13.06-.17.36-.13.28.05.38.41.83.36.47-.03.05.09.11.22s-.06.11-.38.3c-.3.2.02.22.55.61s.38-.25.31-.55c-.07-.3.39-.06.39-.06.33.22.27.02.5.08.23.06.91.64.91.64-.83.44-.31.48-.17.59.14.11-.28.3-.28.3-.17-.17-.19.02-.3.08-.11.06-.02.22-.02.22-.56.09-.44.69-.42.83 0 .14-.38.36-.47.58-.09.2.25.64.06.66-.19.03-.34-.66-1.31-.41-.3.08-.94.41-.59 1.08.36.69.92-.19 1.11-.09.19.1-.06.53-.02.55.04.02.53.02.56.61.03.59.77.53.92.55.17 0 .7-.44.77-.45.06-.03.38-.28 1.03.09.66.36.98.31 1.2.47.22.16.08.47.28.58.2.11 1.06-.03 1.28.31.22.34-.88 2.09-1.22 2.28-.34.19-.48.64-.84.92s-.81.64-1.27.91c-.41.23-.47.66-.66.8 3.14-.7 5.48-3.5 5.48-6.84 0-3.86-3.14-7-7-7L7 1zm1.64 6.56c-.09.03-.28.22-.78-.08-.48-.3-.81-.23-.86-.28 0 0-.05-.11.17-.14.44-.05.98.41 1.11.41.13 0 .19-.13.41-.05.22.08.05.13-.05.14zM6.34 1.7c-.05-.03.03-.08.09-.14.03-.03.02-.11.05-.14.11-.11.61-.25.52.03-.11.27-.58.3-.66.25zm1.23.89c-.19-.02-.58-.05-.52-.14.3-.28-.09-.38-.34-.38-.25-.02-.34-.16-.22-.19.12-.03.61.02.7.08.08.06.52.25.55.38.02.13 0 .25-.17.25zm1.47-.05c-.14.09-.83-.41-.95-.52-.56-.48-.89-.31-1-.41-.11-.1-.08-.19.11-.34.19-.15.69.06 1 .09.3.03.66.27.66.55.02.25.33.5.19.63h-.01z" fill-rule="evenodd"/></symbol><symbol id="mail" viewBox="0 0 14 16"><title>mail</title><path d="M0 4v8c0 .55.45 1 1 1h12c.55 0 1-.45 1-1V4c0-.55-.45-1-1-1H1c-.55 0-1 .45-1 1zm13 0L7 9 1 4h12zM1 5.5l4 3-4 3v-6zM2 12l3.5-3L7 10.5 8.5 9l3.5 3H2zm11-.5l-4-3 4-3v6z" fill-rule="evenodd"/></symbol><symbol id="package" viewBox="0 0 16 16"><title>package</title><path d="M1 4.27v7.47c0 .45.3.84.75.97l6.5 1.73c.16.05.34.05.5 0l6.5-1.73c.45-.13.75-.52.75-.97V4.27c0-.45-.3-.84-.75-.97l-6.5-1.74a1.4 1.4 0 0 0-.5 0L1.75 3.3c-.45.13-.75.52-.75.97zm7 9.09l-6-1.59V5l6 1.61v6.75zM2 4l2.5-.67L11 5.06l-2.5.67L2 4zm13 7.77l-6 1.59V6.61l2-.55V8.5l2-.53V5.53L15 5v6.77zm-2-7.24L6.5 2.8l2-.53L15 4l-2 .53z" fill-rule="evenodd"/></symbol><symbol id="repo" viewBox="0 0 12 16"><title>repo</title><path d="M4 9H3V8h1v1zm0-3H3v1h1V6zm0-2H3v1h1V4zm0-2H3v1h1V2zm8-1v12c0 .55-.45 1-1 1H6v2l-1.5-1.5L3 16v-2H1c-.55 0-1-.45-1-1V1c0-.55.45-1 1-1h10c.55 0 1 .45 1 1zm-1 10H1v2h2v-1h3v1h5v-2zm0-10H2v9h9V1z" fill-rule="evenodd"/></symbol><symbol id="rst" viewBox="-493 167 228 228"><style>.st0,.st1,.st2{fill:#00c96d}.st1,.st2{fill-rule:evenodd;clip-rule:evenodd}.st2{fill:#fff}</style></symbol><symbol id="star" viewBox="0 0 14 16"><title>star</title><path d="M14 6l-4.9-.64L7 1 4.9 5.36 0 6l3.6 3.26L2.67 14 7 11.67 11.33 14l-.93-4.74z" fill-rule="evenodd"/></symbol><symbol id="versions" viewBox="0 0 14 16"><title>versions</title><path d="M13 3H7c-.55 0-1 .45-1 1v8c0 .55.45 1 1 1h6c.55 0 1-.45 1-1V4c0-.55-.45-1-1-1zm-1 8H8V5h4v6zM4 4h1v1H4v6h1v1H4c-.55 0-1-.45-1-1V5c0-.55.45-1 1-1zM1 5h1v1H1v4h1v1H1c-.55 0-1-.45-1-1V6c0-.55.45-1 1-1z" fill-rule="evenodd"/></symbol></svg>